<svg width="29" height="24" viewBox="0 0 29 24" fill="none" xmlns="http://www.w3.org/2000/svg">
<path id="Vector" d="M2.60912 14.1555L12.5139 23.4025C12.925 23.7862 13.4677 24 14.0322 24C14.5968 24 15.1395 23.7862 15.5506 23.4025L25.4553 14.1555C27.1217 12.6043 28.0645 10.4282 28.0645 8.15344V7.83553C28.0645 4.00407 25.2964 0.737191 21.5197 0.106837C19.0203 -0.309745 16.4769 0.506975 14.69 2.29389L14.0322 2.95165L13.3745 2.29389C11.5876 0.506975 9.04421 -0.309745 6.54472 0.106837C2.76808 0.737191 0 4.00407 0 7.83553V8.15344C0 10.4282 0.942791 12.6043 2.60912 14.1555Z" fill="#D34682"/>
</svg>
