<svg width="22" height="19" viewBox="0 0 22 19" fill="none" xmlns="http://www.w3.org/2000/svg">
<path id="Vector" d="M9.70234 18.278L9.59492 18.1791L2.0668 11.1881C0.747656 9.96352 0 8.24477 0 6.44438V6.30258C0 3.27758 2.14844 0.682272 5.12187 0.115085C6.81484 -0.211478 8.54648 0.179538 9.92578 1.15063C10.3125 1.42563 10.6734 1.7436 11 2.10883C11.1805 1.90258 11.3738 1.71352 11.5801 1.53735C11.7391 1.39985 11.9023 1.27094 12.0742 1.15063C13.4535 0.179538 15.1852 -0.211478 16.8781 0.110788C19.8516 0.677975 22 3.27758 22 6.30258V6.44438C22 8.24477 21.2523 9.96352 19.9332 11.1881L12.4051 18.1791L12.2977 18.278C11.9453 18.6045 11.4812 18.7893 11 18.7893C10.5188 18.7893 10.0547 18.6088 9.70234 18.278ZM10.2738 4.39048C10.2566 4.37758 10.2438 4.3604 10.2309 4.34321L9.46602 3.48383L9.46172 3.47954C8.46914 2.36665 6.96953 1.85962 5.50859 2.13891C3.50625 2.52133 2.0625 4.26587 2.0625 6.30258V6.44438C2.0625 7.66899 2.57383 8.84204 3.47188 9.67563L11 16.6666L18.5281 9.67563C19.4262 8.84204 19.9375 7.66899 19.9375 6.44438V6.30258C19.9375 4.27016 18.4937 2.52133 16.4957 2.13891C15.0348 1.85962 13.5309 2.37094 12.5426 3.47954C12.5426 3.47954 12.5426 3.47954 12.5383 3.48383C12.534 3.48813 12.5383 3.48383 12.534 3.48813L11.7691 4.34751C11.7562 4.36469 11.7391 4.37758 11.7262 4.39477C11.5328 4.58813 11.2707 4.69555 11 4.69555C10.7293 4.69555 10.4672 4.58813 10.2738 4.39477V4.39048Z" fill="#0060A0"/>
</svg>
